<svg width="127" height="127" viewBox="0 0 127 127" fill="none" xmlns="http://www.w3.org/2000/svg">
<path d="M35.5932 94.0259L46.9309 82.6883C48.1215 81.4977 50.0566 81.4977 51.2472 82.6883L61.1641 92.6051C62.3546 93.7957 64.2898 93.7957 65.4804 92.6051L75.0052 83.0803C76.1958 81.8898 78.1309 81.8898 79.3215 83.0803L90.6592 94.418C91.8497 95.6086 91.8497 97.5437 90.6592 98.7343L65.4804 123.913C64.2898 125.104 62.3546 125.104 61.1641 123.913L35.5932 98.3423C34.399 97.1481 34.4026 95.2165 35.5932 94.0259Z" fill="#3F2FFF"/>
<path d="M43.7769 74.8712C39.0757 67.5442 39.0469 58.0914 43.687 50.7392C44.4567 49.5234 44.3057 47.9408 43.2877 46.9228L31.7199 35.355C30.4214 34.0565 28.2632 34.1788 27.1518 35.6355C14.9257 51.6456 14.9688 74.0259 27.2812 89.9929C28.3999 91.4424 30.5473 91.5611 31.8422 90.2662L43.3956 78.7128C44.4172 77.6841 44.5647 76.0906 43.7769 74.8712Z" fill="#3F2FFF"/>
<path d="M50.8737 43.6037C58.2044 39.0499 67.5888 39.1111 74.8691 43.7799C76.0921 44.5641 77.6855 44.4238 78.7142 43.3951L90.2677 31.8416C91.5626 30.5467 91.4439 28.3993 89.9943 27.2807C74.0742 15.0078 51.791 14.9323 35.7917 27.0397C34.3241 28.1475 34.1982 30.3165 35.4967 31.615L47.0718 43.19C48.0861 44.2044 49.658 44.3591 50.8737 43.6037Z" fill="#3F2FFF"/>
<path d="M82.4652 51.4485C87.0189 58.7792 86.9578 68.1636 82.2889 75.4439C81.5048 76.6669 81.6451 78.2603 82.6738 79.289L94.2273 90.8425C95.5222 92.1374 97.6696 92.0187 98.7882 90.5691C111.057 74.6526 111.14 52.3694 99.0292 36.3665C97.9213 34.8989 95.7524 34.773 94.4539 36.0715L82.8788 47.6466C81.8645 48.6609 81.7134 50.2292 82.4652 51.4485Z" fill="#3F2FFF"/>
</svg>
