<svg width="90" height="90" viewBox="0 0 90 90" fill="none" xmlns="http://www.w3.org/2000/svg">
<path d="M86.2525 89.5459H70.2187C68.5349 89.5459 67.1666 88.1776 67.1666 86.4938V72.4693C67.1666 70.7855 65.7982 69.4172 64.1145 69.4172H50.6444C48.9607 69.4172 47.5923 68.0488 47.5923 66.3651V50.3363C47.5923 48.6525 48.9607 47.2842 50.6444 47.2842H86.2525C87.9363 47.2842 89.3047 48.6525 89.3047 50.3363V86.4989C89.3047 88.1827 87.9414 89.5459 86.2525 89.5459Z" fill="#3F2FFF"/>
<path d="M42.2668 50.611V66.6448C42.2668 68.3286 40.8985 69.697 39.2147 69.697H25.1902C23.5064 69.697 22.1381 71.0653 22.1381 72.7491V86.2242C22.1381 87.908 20.7697 89.2764 19.086 89.2764H3.05212C1.36837 89.2764 0 87.908 0 86.2242V50.6161C0 48.9323 1.36837 47.564 3.05212 47.564H39.2147C40.8985 47.5589 42.2668 48.9222 42.2668 50.611Z" fill="#3F2FFF"/>
<path d="M22.667 39.5266C24.5238 31.0214 31.1876 24.3169 39.6674 22.3991C41.0714 22.0838 42.0836 20.8578 42.0836 19.4182V3.05885C42.0836 1.22248 40.4711 -0.217102 38.6551 0.0270684C18.6891 2.70276 2.89436 18.5586 0.310226 38.5551C0.0762295 40.3711 1.51073 41.9734 3.342 41.9734H19.681C21.1308 41.9683 22.3618 40.9459 22.667 39.5266Z" fill="#3F2FFF"/>
<path d="M49.7953 22.4063C58.1988 24.3698 64.7914 31.0489 66.638 39.4982C66.9483 40.9174 68.1742 41.945 69.6291 41.945H85.9681C87.7994 41.945 89.2339 40.3426 88.9999 38.5266C86.4208 18.5911 70.7176 2.78113 50.8432 0.0291299C49.0221 -0.225214 47.3994 1.21946 47.3994 3.05582V19.4254C47.3994 20.8599 48.4015 22.0807 49.7953 22.4063Z" fill="#3F2FFF"/>
</svg>
