<svg width="91" height="81" viewBox="0 0 91 81" fill="none" xmlns="http://www.w3.org/2000/svg">
<path d="M22.3819 40.7734C24.2386 49.2787 30.9024 55.9832 39.3822 57.9009C40.7862 58.2163 41.7985 59.4422 41.7985 60.8818V77.2412C41.7985 79.0776 40.1859 80.5172 38.3699 80.273C18.4039 77.5973 2.6092 61.7415 0.0250695 41.745C-0.208927 39.929 1.22557 38.3266 3.05685 38.3266H19.3959C20.8456 38.3317 22.0767 39.3542 22.3819 40.7734Z" fill="#3F2FFF"/>
<path d="M49.5097 57.865C57.9132 55.9014 64.5058 49.2224 66.3523 40.7731C66.6626 39.3538 67.8886 38.3263 69.3434 38.3263H85.6825C87.5137 38.3263 88.9482 39.9286 88.7142 41.7446C86.1352 61.6801 70.432 77.4901 50.5576 80.2421C48.7365 80.4965 47.1138 79.0518 47.1138 77.2154V60.8459C47.1138 59.4114 48.1159 58.1905 49.5097 57.865Z" fill="#3F2FFF"/>
<path d="M86.5379 0H50.6641C48.7311 0 47.1641 1.567 47.1641 3.5V18.5865C47.1641 20.5195 48.7311 22.0865 50.6641 22.0865H86.5379C88.4709 22.0865 90.0379 20.5195 90.0379 18.5865V3.5C90.0379 1.567 88.4709 0 86.5379 0Z" fill="#3F2FFF"/>
</svg>
