<svg width="65" height="64" viewBox="0 0 65 64" fill="none" xmlns="http://www.w3.org/2000/svg">
<path d="M64.0731 35.2747V48.8722C64.0731 49.4922 63.5727 49.9926 62.9527 49.9926H50.7947C50.1747 49.9926 49.6743 50.493 49.6743 51.1131V62.8794C49.6743 63.4995 49.1739 63.9998 48.5538 63.9998H34.9564C34.3363 63.9998 33.8359 63.4995 33.8359 62.8794V35.2747C33.8359 34.6547 34.3363 34.1543 34.9564 34.1543H62.9527C63.5727 34.1543 64.0731 34.6547 64.0731 35.2747Z" fill="white"/>
<path d="M15.9877 29.1905C17.1045 22.4788 22.3804 17.1703 29.0739 15.9991C29.6215 15.9048 30.0312 15.4516 30.0312 14.8932V1.12892C30.0312 0.47624 29.4692 -0.0567813 28.8201 0.00486056C13.5366 1.45163 1.38223 13.6459 0.00435507 28.9475C-0.0536608 29.5966 0.475734 30.155 1.12841 30.155H14.8818C15.4402 30.155 15.8971 29.7416 15.9877 29.1905Z" fill="white"/>
<path d="M34.7811 16.017C41.4203 17.2317 46.6344 22.5148 47.7476 29.1866C47.8383 29.7377 48.2951 30.1547 48.8535 30.1547H62.6069C63.2596 30.1547 63.789 29.5963 63.731 28.9473C62.3567 13.6891 50.2713 1.52025 35.0494 0.0190917C34.3967 -0.0461762 33.8311 0.486845 33.8311 1.14315V14.9183C33.8347 15.4695 34.2372 15.9191 34.7811 16.017Z" fill="white"/>
<path d="M1.09673 49.9538C7.77943 51.154 13.0262 56.3718 14.1467 62.9675C14.2373 63.5114 14.6978 63.9211 15.2599 63.9211H29.1039C29.7602 63.9211 30.2932 63.37 30.2352 62.7282C28.8537 47.6549 16.6885 35.6311 1.36868 34.1481C0.712371 34.0828 0.14309 34.6086 0.14309 35.2576V48.866C0.139464 49.4099 0.549201 49.8559 1.09673 49.9538Z" fill="white"/>
</svg>
