<svg width="305" height="64" viewBox="0 0 305 64" fill="none" xmlns="http://www.w3.org/2000/svg">
<path d="M123.785 56.7908C136.107 56.7908 145.85 50.9303 148.888 41.6558L144.418 40.2334C142.01 47.8009 133.987 52.6372 123.785 52.6372C110.145 52.6372 101.434 45.8663 101.376 35.3401C101.376 24.757 109.4 18.043 122.009 18.043C131.121 18.043 138.285 22.3673 140.463 29.1951L144.761 27.4312C141.667 19.1241 132.783 13.8325 121.951 13.8325C106.42 13.8325 96.6194 22.1966 96.6194 35.3401C96.6194 48.4267 107.165 56.7908 123.785 56.7908Z" fill="#111111"/>
<path d="M151.03 55.3684H156.131L161.403 45.7525H189.142L194.472 55.3684H199.516L178.138 15.255H172.522L151.03 55.3684ZM163.524 41.542L175.273 19.4086H175.387L187.079 41.542H163.524Z" fill="#111111"/>
<path d="M203.84 55.3684H227.682C242.812 55.3684 251.179 48.1992 251.179 35.3401C251.179 22.4242 242.812 15.255 227.682 15.255H203.84V55.3684ZM208.597 51.2148V19.4655H227.682C239.717 19.4655 246.423 25.0984 246.423 35.3401C246.423 45.5249 239.717 51.2148 227.682 51.2148H208.597Z" fill="#111111"/>
<path d="M256.911 55.3684H280.753C295.884 55.3684 304.251 48.1992 304.251 35.3401C304.251 22.4242 295.884 15.255 280.753 15.255H256.911V55.3684ZM261.668 51.2148V19.4655H280.753C292.789 19.4655 299.494 25.0984 299.494 35.3401C299.494 45.5249 292.789 51.2148 280.753 51.2148H261.668Z" fill="#111111"/>
<path fill-rule="evenodd" clip-rule="evenodd" d="M29.0739 15.9991C22.3804 17.1703 17.1045 22.4788 15.9877 29.1905C15.8971 29.7416 15.4402 30.155 14.8818 30.155H1.12841C0.475734 30.155 -0.0536608 29.5966 0.00435507 28.9475C1.38223 13.6459 13.5366 1.45163 28.8201 0.00486056C29.4692 -0.0567813 30.0312 0.47624 30.0312 1.12892V14.8932C30.0312 15.4516 29.6215 15.9048 29.0739 15.9991ZM64.0733 48.8727V35.2752C64.0733 34.6552 63.573 34.1548 62.9529 34.1548H34.9566C34.3366 34.1548 33.8362 34.6552 33.8362 35.2752V62.8799C33.8362 63.5 34.3366 64.0003 34.9566 64.0003H48.5541C49.1741 64.0003 49.6745 63.5 49.6745 62.8799V51.1136C49.6745 50.4935 50.1749 49.9931 50.795 49.9931H62.9529C63.573 49.9931 64.0733 49.4927 64.0733 48.8727ZM34.781 16.016C41.4202 17.2307 46.6344 22.5138 47.7476 29.1856C47.8382 29.7368 48.2951 30.1538 48.8535 30.1538H62.6069C63.2596 30.1538 63.7889 29.5954 63.7309 28.9463C62.3567 13.6881 50.2712 1.51928 35.0493 0.0181151C34.3966 -0.0471528 33.831 0.485869 33.831 1.14217V14.9173C33.8346 15.4685 34.2371 15.9181 34.781 16.016ZM14.1467 62.967C13.0262 56.3713 7.77943 51.1535 1.09673 49.9533C0.549201 49.8554 0.139464 49.4094 0.14309 48.8655V35.2571C0.14309 34.6081 0.712371 34.0823 1.36868 34.1476C16.6885 35.6306 28.8537 47.6544 30.2352 62.7277C30.2932 63.3695 29.7602 63.9206 29.1039 63.9206H15.2599C14.6978 63.9206 14.2373 63.5109 14.1467 62.967Z" fill="url(#paint0_linear)"/>
<defs>
<linearGradient id="paint0_linear" x1="64.7343" y1="10.5193" x2="-22.1201" y2="55.2502" gradientUnits="userSpaceOnUse">
<stop stop-color="#500AE4"/>
<stop offset="1" stop-color="#0AD7E4"/>
</linearGradient>
</defs>
</svg>
