<svg width="188" height="40" viewBox="0 0 188 40" fill="none" xmlns="http://www.w3.org/2000/svg">
<path d="M76.4882 35.0918C84.1022 35.0918 90.1225 31.4705 91.9994 25.7397L89.2372 24.8607C87.7498 29.5368 82.7919 32.5252 76.4882 32.5252C68.0598 32.5252 62.6769 28.3414 62.6415 21.8371C62.6415 15.2977 67.5994 11.1491 75.3904 11.1491C81.0212 11.1491 85.4479 13.8211 86.7936 18.0401L89.4496 16.9502C87.5373 11.8171 82.0482 8.54736 75.355 8.54736C65.7579 8.54736 59.7021 13.7156 59.7021 21.8371C59.7021 29.9235 66.2183 35.0918 76.4882 35.0918Z" fill="white"/>
<path d="M93.323 34.2128H96.4748L99.7329 28.2711H116.873L120.167 34.2128H123.283L110.074 9.42632H106.603L93.323 34.2128ZM101.043 25.6694L108.303 11.9929H108.374L115.598 25.6694H101.043Z" fill="white"/>
<path d="M125.955 34.2128H140.687C150.036 34.2128 155.207 29.7829 155.207 21.8371C155.207 13.8562 150.036 9.42632 140.687 9.42632H125.955V34.2128ZM128.894 31.6463V12.028H140.687C148.124 12.028 152.267 15.5087 152.267 21.8371C152.267 28.1305 148.124 31.6463 140.687 31.6463H128.894Z" fill="white"/>
<path d="M158.748 34.2128H173.481C182.83 34.2128 188 29.7829 188 21.8371C188 13.8562 182.83 9.42632 173.481 9.42632H158.748V34.2128ZM161.688 31.6463V12.028H173.481C180.917 12.028 185.061 15.5087 185.061 21.8371C185.061 28.1305 180.917 31.6463 173.481 31.6463H161.688Z" fill="white"/>
<path fill-rule="evenodd" clip-rule="evenodd" d="M17.9651 9.88603C13.8291 10.6097 10.5691 13.8899 9.879 18.0371C9.82298 18.3777 9.54068 18.6331 9.19563 18.6331H0.697259C0.293961 18.6331 -0.0331576 18.2881 0.00269105 17.887C0.854097 8.43192 8.36439 0.89698 17.8083 0.00300339C18.2093 -0.0350858 18.5566 0.294274 18.5566 0.697571V9.20267C18.5566 9.54771 18.3034 9.82778 17.9651 9.88603ZM39.5921 30.1987V21.7967C39.5921 21.4136 39.2829 21.1044 38.8998 21.1044H21.6005C21.2174 21.1044 20.9082 21.4136 20.9082 21.7967V38.8539C20.9082 39.2371 21.2174 39.5463 21.6005 39.5463H30.0026C30.3857 39.5463 30.6949 39.2371 30.6949 38.8539V31.5834C30.6949 31.2003 31.0041 30.8911 31.3872 30.8911H38.8998C39.2829 30.8911 39.5921 30.5819 39.5921 30.1987ZM21.4916 9.8969C25.594 10.6475 28.8159 13.9119 29.5037 18.0345C29.5597 18.3751 29.8421 18.6328 30.1871 18.6328H38.6855C39.0888 18.6328 39.4159 18.2877 39.38 17.8867C38.5309 8.45847 31.0632 0.939207 21.6574 0.011623C21.2541 -0.0287067 20.9045 0.300653 20.9045 0.706191V9.21801C20.9068 9.55857 21.1555 9.8364 21.4916 9.8969ZM8.74088 38.9079C8.04855 34.8324 4.80649 31.6082 0.677168 30.8666C0.338846 30.8061 0.0856648 30.5305 0.0879054 30.1944V21.7857C0.0879054 21.3846 0.43967 21.0597 0.845208 21.1001C10.3115 22.0165 17.8285 29.4461 18.6822 38.76C18.718 39.1566 18.3886 39.4972 17.9831 39.4972H9.42872C9.08144 39.4972 8.79689 39.244 8.74088 38.9079Z" fill="url(#paint0_linear)"/>
<defs>
<linearGradient id="paint0_linear" x1="39.5921" y1="31.3898" x2="-7.02781" y2="36.1914" gradientUnits="userSpaceOnUse">
<stop stop-color="#500AE4"/>
<stop offset="1" stop-color="#0AD7E4"/>
</linearGradient>
</defs>
</svg>
