<svg width="146" height="146" viewBox="0 0 146 146" fill="none" xmlns="http://www.w3.org/2000/svg">
<path fill-rule="evenodd" clip-rule="evenodd" d="M73.0557 35.2413V2.68281C73.0557 1.19815 74.2538 -1.19209e-07 75.7385 0L142.774 5.84126e-06C144.259 5.96046e-06 145.457 1.19815 145.457 2.68282V68.7809C145.457 70.2655 144.259 71.4637 142.774 71.4637L110.216 71.4637C108.731 71.4637 107.533 70.2655 107.533 68.7809V40.6069C107.533 39.1223 106.335 37.9241 104.85 37.9241L75.7385 37.9241C74.2538 37.9241 73.0557 36.726 73.0557 35.2413ZM0 108.879L5.69271e-06 76.3205C5.95229e-06 74.8358 1.19816 73.6377 2.68282 73.6377L69.7185 73.6377C71.2032 73.6377 72.4014 74.8358 72.4014 76.3205L72.4013 142.419C72.4013 143.903 71.2032 145.101 69.7185 145.101H37.1601C35.6754 145.101 34.4772 143.903 34.4772 142.419L34.4772 114.245C34.4772 112.76 33.2791 111.562 31.7944 111.562L2.68282 111.562C1.19815 111.562 -2.59587e-07 110.364 0 108.879Z" fill="url(#paint0_linear)"/>
<defs>
<linearGradient id="paint0_linear" x1="186.5" y1="89" x2="-29.6322" y2="119.608" gradientUnits="userSpaceOnUse">
<stop stop-color="#500AE4"/>
<stop offset="1" stop-color="#0AD7E4"/>
</linearGradient>
</defs>
</svg>
