<svg width="145" height="146" viewBox="0 0 145 146" fill="none" xmlns="http://www.w3.org/2000/svg">
<g filter="url(#filter0_i)">
<path fill-rule="evenodd" clip-rule="evenodd" d="M33.6396 68.1719H2.98312C1.58519 68.1719 0.457031 67.0437 0.457031 65.6458L0.457034 2.5261C0.457034 1.12816 1.58519 0 2.98313 0L65.2199 2.83088e-06C66.6179 2.89198e-06 67.746 1.12817 67.746 2.5261L67.746 33.1826C67.746 34.5805 66.6179 35.7087 65.2199 35.7087L38.6918 35.7087C37.2939 35.7087 36.1657 36.8369 36.1657 38.2348L36.1657 65.6458C36.1657 67.0437 35.0376 68.1719 33.6396 68.1719ZM144.714 34.5477V65.2042C144.714 66.6021 143.585 67.7303 142.188 67.7303H79.0678C77.6699 67.7303 76.5417 66.6021 76.5417 65.2042V2.96741C76.5417 1.56948 77.6699 0.441325 79.0678 0.441325H109.724C111.122 0.441325 112.25 1.56948 112.25 2.96741V29.4955C112.25 30.8934 113.379 32.0216 114.777 32.0216H142.188C143.585 32.0216 144.714 33.1498 144.714 34.5477ZM141.503 76.8381H110.847C109.449 76.8381 108.321 77.9663 108.321 79.3642V106.775C108.321 108.173 107.193 109.301 105.795 109.301H79.2665C77.8686 109.301 76.7405 110.429 76.7405 111.827V142.484C76.7405 143.882 77.8686 145.01 79.2665 145.01H141.503C142.901 145.01 144.029 143.882 144.029 142.484V79.3642C144.029 77.9663 142.901 76.8381 141.503 76.8381ZM33.6396 76.6727H2.98312C1.58519 76.6727 0.457031 77.8008 0.457031 79.1988L0.457034 142.318C0.457034 143.716 1.58519 144.845 2.98313 144.845H65.2199C66.6179 144.845 67.746 143.716 67.746 142.318L67.746 111.662C67.746 110.264 66.6179 109.136 65.2199 109.136H38.6918C37.2939 109.136 36.1657 108.008 36.1657 106.61L36.1657 79.1988C36.1657 77.8008 35.0376 76.6727 33.6396 76.6727Z" fill="url(#paint0_linear)"/>
</g>
<defs>
<filter id="filter0_i" x="-1.54297" y="-2" width="146.257" height="147.01" filterUnits="userSpaceOnUse" color-interpolation-filters="sRGB">
<feFlood flood-opacity="0" result="BackgroundImageFix"/>
<feBlend mode="normal" in="SourceGraphic" in2="BackgroundImageFix" result="shape"/>
<feColorMatrix in="SourceAlpha" type="matrix" values="0 0 0 0 0 0 0 0 0 0 0 0 0 0 0 0 0 0 127 0" result="hardAlpha"/>
<feOffset dx="-2" dy="-2"/>
<feGaussianBlur stdDeviation="2.5"/>
<feComposite in2="hardAlpha" operator="arithmetic" k2="-1" k3="1"/>
<feColorMatrix type="matrix" values="0 0 0 0 0.66235 0 0 0 0 0.639792 0 0 0 0 0.925 0 0 0 1 0"/>
<feBlend mode="normal" in2="shape" result="effect1_innerShadow"/>
</filter>
<linearGradient id="paint0_linear" x1="184.5" y1="19.5" x2="-48.1279" y2="113.749" gradientUnits="userSpaceOnUse">
<stop stop-color="#1652F0"/>
<stop offset="0.211314" stop-color="#E3F1FF"/>
<stop offset="0.335702" stop-color="white"/>
<stop offset="0.442891" stop-color="#DBE6F1"/>
<stop offset="0.648358" stop-color="#EBF1F8"/>
<stop offset="0.759006" stop-color="#EAF4FD"/>
<stop offset="0.848337" stop-color="#F6F8F9"/>
<stop offset="1" stop-color="#DAE0FB"/>
</linearGradient>
</defs>
</svg>
