<svg width="472" height="472" viewBox="0 0 472 472" fill="none" xmlns="http://www.w3.org/2000/svg">
<path fill-rule="evenodd" clip-rule="evenodd" d="M214.124 117.83C164.827 126.456 125.972 165.552 117.747 214.982C117.079 219.041 113.714 222.086 109.602 222.086H8.31054C3.50369 222.086 -0.395201 217.973 0.0320742 213.193C10.1799 100.499 99.6941 10.691 212.255 0.035797C217.035 -0.418183 221.174 3.50741 221.174 8.31426V109.685C221.174 113.798 218.156 117.136 214.124 117.83ZM471.879 359.935V259.793C471.879 255.226 468.193 251.541 463.627 251.541H257.44C252.873 251.541 249.188 255.226 249.188 259.793V463.096C249.188 467.662 252.873 471.348 257.44 471.348H357.582C362.149 471.348 365.834 467.662 365.834 463.096V376.439C365.834 371.873 369.519 368.187 374.086 368.187H463.627C468.193 368.187 471.879 364.502 471.879 359.935ZM256.153 117.964C305.05 126.91 343.451 165.819 351.649 214.955C352.317 219.014 355.682 222.085 359.794 222.085H461.085C465.892 222.085 469.791 217.973 469.364 213.193C459.243 100.819 370.236 11.1982 258.13 0.142455C253.323 -0.33823 249.157 3.58736 249.157 8.42092V109.872C249.183 113.931 252.148 117.243 256.153 117.964ZM104.177 463.737C95.9256 415.161 57.2839 376.733 8.0671 367.894C4.03468 367.173 1.01705 363.888 1.04375 359.882V259.66C1.04375 254.879 5.2364 251.007 10.07 251.488C122.897 262.41 212.492 350.963 222.666 461.975C223.094 466.701 219.168 470.76 214.334 470.76H112.376C108.237 470.76 104.845 467.743 104.177 463.737Z" fill="url(#paint0_linear)"/>
<defs>
<linearGradient id="paint0_linear" x1="236.367" y1="0.347661" x2="65.8162" y2="577.444" gradientUnits="userSpaceOnUse">
<stop stop-color="#500AE4"/>
<stop offset="1" stop-color="#0AD7E4"/>
</linearGradient>
</defs>
</svg>
