<svg width="91" height="71" viewBox="0 0 91 71" fill="none" xmlns="http://www.w3.org/2000/svg">
<path fill-rule="evenodd" clip-rule="evenodd" d="M74.1394 1.81117L62.3816 13.569L62.3567 13.5936L34.9296 41.0207L16.8987 22.9898C15.5319 21.6229 13.3158 21.6229 11.949 22.9898L1.28116 33.6576C-0.0856767 35.0244 -0.085679 37.2405 1.28116 38.6073L21.7339 59.0601C21.7512 59.0781 21.7687 59.0959 21.7864 59.1137L32.4542 69.7815C33.821 71.1483 36.0371 71.1483 37.4039 69.7815L64.3654 42.82L64.3903 42.7954L89.7569 17.4287C91.1238 16.0619 91.1238 13.8458 89.7569 12.479L79.0891 1.81117C77.7223 0.444334 75.5062 0.444333 74.1394 1.81117Z" fill="url(#paint0_linear)"/>
<defs>
<linearGradient id="paint0_linear" x1="90.7822" y1="56.3648" x2="-15.0713" y2="70.4435" gradientUnits="userSpaceOnUse">
<stop stop-color="#500AE4"/>
<stop offset="1" stop-color="#0AD7E4"/>
</linearGradient>
</defs>
</svg>
