<svg width="472" height="473" viewBox="0 0 472 473" fill="none" xmlns="http://www.w3.org/2000/svg">
<path fill-rule="evenodd" clip-rule="evenodd" d="M117.747 258.018C125.972 307.448 164.827 346.544 214.124 355.17C218.156 355.864 221.174 359.202 221.174 363.315V464.686C221.174 469.493 217.035 473.418 212.255 472.964C99.6941 462.309 10.1799 372.501 0.0320742 259.807C-0.395201 255.027 3.50369 250.914 8.31054 250.914H109.602C113.714 250.914 117.079 253.959 117.747 258.018ZM109.836 222.901H9.69375C5.12725 222.901 1.442 219.216 1.442 214.649L1.44201 8.4621C1.44201 3.8956 5.12726 0.210327 9.69376 0.210327H212.997C217.563 0.210327 221.249 3.8956 221.249 8.4621V108.605C221.249 113.171 217.563 116.857 212.997 116.857H126.34C121.774 116.857 118.088 120.542 118.088 125.108V214.649C118.088 219.216 114.403 222.901 109.836 222.901ZM249.188 110.047L249.188 9.90411C249.188 5.33759 252.873 1.65234 257.44 1.65234L463.627 1.65237C468.193 1.65237 471.879 5.33762 471.879 9.90411L471.879 213.207C471.879 217.774 468.193 221.459 463.627 221.459H363.484C358.918 221.459 355.232 217.774 355.232 213.207V126.55C355.232 121.984 351.547 118.299 346.981 118.299H257.44C252.873 118.299 249.188 114.613 249.188 110.047ZM351.649 258.045C343.451 307.181 305.05 346.09 256.153 355.036C252.148 355.757 249.183 359.069 249.157 363.128V464.579C249.157 469.413 253.323 473.338 258.13 472.858C370.236 461.802 459.243 372.181 469.364 259.807C469.791 255.027 465.892 250.915 461.085 250.915H359.794C355.682 250.915 352.317 253.986 351.649 258.045Z" fill="url(#paint0_linear)"/>
<defs>
<linearGradient id="paint0_linear" x1="442" y1="0.652259" x2="140.162" y2="571.356" gradientUnits="userSpaceOnUse">
<stop stop-color="#500AE4"/>
<stop offset="1" stop-color="#0AD7E4"/>
</linearGradient>
</defs>
</svg>
