<svg width="472" height="472" viewBox="0 0 472 472" fill="none" xmlns="http://www.w3.org/2000/svg">
<path fill-rule="evenodd" clip-rule="evenodd" d="M351.462 214.853C343.264 165.716 304.862 126.807 255.966 117.861C251.96 117.14 248.996 113.829 248.969 109.77V8.31838C248.969 3.48483 253.135 -0.440769 257.942 0.0399158C370.048 11.0957 459.055 100.717 469.176 213.09C469.604 217.87 465.705 221.983 460.898 221.983H359.607C355.494 221.983 352.13 218.912 351.462 214.853ZM222.691 110.833V10.6902C222.691 6.12372 219.005 2.43848 214.439 2.43848H8.25177C3.68526 2.43848 0 6.12372 0 10.6902V213.993C0 218.56 3.68526 222.245 8.25177 222.245H108.394C112.961 222.245 116.646 218.56 116.646 213.993V127.337C116.646 122.77 120.331 119.085 124.898 119.085H214.439C219.005 119.085 222.691 115.399 222.691 110.833ZM215.488 354.212C166.271 345.372 127.629 306.944 119.377 258.368C118.71 254.363 115.318 251.345 111.179 251.345H9.22031C4.38676 251.345 0.461178 255.404 0.888454 260.131C11.063 371.142 100.657 459.695 213.485 470.617C218.318 471.098 222.511 467.226 222.511 462.446V362.223C222.538 358.217 219.52 354.933 215.488 354.212ZM249.001 362.851V462.993C249.001 467.56 252.686 471.245 257.252 471.245H463.44C468.006 471.245 471.691 467.56 471.691 462.993V259.69C471.691 255.124 468.006 251.439 463.44 251.439H363.297C358.73 251.439 355.045 255.124 355.045 259.69V346.347C355.045 350.914 351.36 354.599 346.793 354.599H257.252C252.686 354.599 249.001 358.284 249.001 362.851Z" fill="url(#paint0_linear)"/>
<defs>
<linearGradient id="paint0_linear" x1="236.273" y1="0.347585" x2="65.7339" y2="577.302" gradientUnits="userSpaceOnUse">
<stop stop-color="#500AE4"/>
<stop offset="1" stop-color="#0AD7E4"/>
</linearGradient>
</defs>
</svg>
