<svg width="472" height="472" viewBox="0 0 472 472" fill="none" xmlns="http://www.w3.org/2000/svg">
<path fill-rule="evenodd" clip-rule="evenodd" d="M214.124 117.83C164.827 126.456 125.972 165.552 117.747 214.982C117.079 219.041 113.714 222.086 109.602 222.086H8.31054C3.50369 222.086 -0.395201 217.973 0.0320746 213.193C10.1799 100.499 99.6941 10.691 212.255 0.035797C217.035 -0.418183 221.174 3.50741 221.174 8.31426V109.685C221.174 113.798 218.156 117.136 214.124 117.83ZM249.188 359.935V259.793C249.188 255.226 252.873 251.541 257.44 251.541H463.627C468.193 251.541 471.879 255.226 471.879 259.793V463.096C471.879 467.662 468.193 471.348 463.627 471.348H363.484C358.918 471.348 355.232 467.662 355.232 463.096V376.439C355.232 371.873 351.547 368.187 346.981 368.187H257.44C252.873 368.187 249.188 364.502 249.188 359.935ZM256.153 117.964C305.05 126.91 343.451 165.819 351.649 214.955C352.317 219.014 355.682 222.085 359.794 222.085H461.085C465.892 222.085 469.791 217.973 469.364 213.193C459.243 100.819 370.236 11.1982 258.13 0.142455C253.323 -0.33823 249.157 3.58736 249.157 8.42092V109.872C249.183 113.931 252.148 117.243 256.153 117.964ZM222.691 359.394V259.252C222.691 254.685 219.005 251 214.439 251H8.25177C3.68526 251 0 254.685 0 259.252V462.555C0 467.121 3.68526 470.807 8.25177 470.807H108.394C112.961 470.807 116.646 467.121 116.646 462.555V375.898C116.646 371.332 120.331 367.646 124.898 367.646H214.439C219.005 367.646 222.691 363.961 222.691 359.394Z" fill="url(#paint0_linear)"/>
<defs>
<linearGradient id="paint0_linear" x1="471.879" y1="374.132" x2="-83.7614" y2="431.358" gradientUnits="userSpaceOnUse">
<stop stop-color="#500AE4"/>
<stop offset="1" stop-color="#0AD7E4"/>
</linearGradient>
</defs>
</svg>
