<svg width="476" height="476" viewBox="0 0 476 476" fill="none" xmlns="http://www.w3.org/2000/svg">
<path fill-rule="evenodd" clip-rule="evenodd" d="M215.994 118.859C166.267 127.56 127.072 166.998 118.775 216.86C118.101 220.954 114.707 224.025 110.559 224.025H8.38312C3.53429 224.025 -0.398653 219.877 0.0323544 215.055C10.2688 101.377 100.565 10.7844 214.108 0.0361097C218.93 -0.421836 223.106 3.53805 223.106 8.38688V110.643C223.106 114.792 220.062 118.159 215.994 118.859ZM251.364 366.123V467.141C251.364 471.747 255.082 475.464 259.688 475.464H467.676C472.283 475.464 476 471.747 476 467.141V262.062C476 257.455 472.283 253.738 467.676 253.738H366.659C362.052 253.738 358.335 257.455 358.335 262.062V349.476C358.335 354.082 354.618 357.799 350.011 357.799H259.688C255.082 357.799 251.364 361.517 251.364 366.123ZM258.391 118.994C307.714 128.018 346.451 167.267 354.721 216.833C355.394 220.927 358.788 224.025 362.937 224.025H465.113C469.961 224.025 473.894 219.877 473.463 215.055C463.254 101.7 373.47 11.296 260.384 0.143699C255.535 -0.341184 251.333 3.6187 251.333 8.49447V110.832C251.36 114.926 254.35 118.267 258.391 118.994ZM120.609 260.728C128.932 309.729 167.912 348.492 217.558 357.409C221.626 358.136 224.67 361.45 224.643 365.49V466.588C224.643 471.41 220.414 475.316 215.538 474.831C101.725 463.814 11.3482 374.487 1.08484 262.506C0.653834 257.738 4.6137 253.644 9.48947 253.644H112.339C116.514 253.644 119.935 256.688 120.609 260.728Z" fill="url(#paint0_linear)"/>
<defs>
<linearGradient id="paint0_linear" x1="238.432" y1="0.350698" x2="66.391" y2="582.488" gradientUnits="userSpaceOnUse">
<stop stop-color="#500AE4"/>
<stop offset="1" stop-color="#0AD7E4"/>
</linearGradient>
</defs>
</svg>
