<svg width="472" height="474" viewBox="0 0 472 474" fill="none" xmlns="http://www.w3.org/2000/svg">
<path fill-rule="evenodd" clip-rule="evenodd" d="M108.394 222.691H8.25175C3.68524 222.691 -1.99609e-07 219.005 0 214.439L9.37342e-06 8.25177C9.37342e-06 3.68526 3.68525 0 8.25176 0L211.555 9.24736e-06C216.121 9.44697e-06 219.807 3.68527 219.807 8.25178V108.394C219.807 112.961 216.121 116.646 211.555 116.646H124.898C120.332 116.646 116.646 120.331 116.646 124.898V214.439C116.646 219.005 112.961 222.691 108.394 222.691ZM471.249 112.854V212.997C471.249 217.563 467.564 221.249 462.997 221.249H256.81C252.243 221.249 248.558 217.563 248.558 212.997V9.69379C248.558 5.12728 252.243 1.44205 256.81 1.44205H356.953C361.519 1.44205 365.204 5.12728 365.204 9.69379V96.3506C365.204 100.917 368.89 104.602 373.456 104.602H462.997C467.564 104.602 471.249 108.288 471.249 112.854ZM460.743 251H360.6C356.034 251 352.348 254.685 352.348 259.252V348.793C352.348 353.359 348.663 357.044 344.097 357.044H257.44C252.873 357.044 249.188 360.73 249.188 365.296V465.439C249.188 470.005 252.873 473.691 257.44 473.691H460.743C465.309 473.691 468.995 470.005 468.995 465.439V259.252C468.995 254.685 465.309 251 460.743 251ZM108.394 250.459H8.25175C3.68524 250.459 -1.99609e-07 254.144 0 258.711L9.37342e-06 464.898C9.37342e-06 469.464 3.68525 473.15 8.25176 473.15H211.555C216.121 473.15 219.807 469.464 219.807 464.898V364.755C219.807 360.189 216.121 356.503 211.555 356.503H124.898C120.332 356.503 116.646 352.818 116.646 348.252V258.711C116.646 254.144 112.961 250.459 108.394 250.459Z" fill="url(#paint0_linear)"/>
<defs>
<linearGradient id="paint0_linear" x1="428.558" y1="79.401" x2="-168.54" y2="420.209" gradientUnits="userSpaceOnUse">
<stop stop-color="#500AE4"/>
<stop offset="1" stop-color="#0AD7E4"/>
</linearGradient>
</defs>
</svg>
