<svg width="473" height="422" viewBox="0 0 473 422" fill="none" xmlns="http://www.w3.org/2000/svg">
<path fill-rule="evenodd" clip-rule="evenodd" d="M247.358 0H472.215V115.835H247.358V0ZM259.656 303.48C303.729 293.182 338.305 258.153 347.989 213.84C349.616 206.397 356.046 201.008 363.676 201.008H449.368C458.972 201.008 466.495 209.411 465.268 218.936C451.742 323.489 369.385 406.406 265.152 420.839C255.601 422.173 247.091 414.597 247.091 404.966V319.114C247.091 311.59 252.346 305.188 259.656 303.48ZM117.384 213.84C127.122 258.447 162.071 293.61 206.544 303.667C213.907 305.321 219.216 311.751 219.216 319.301V405.099C219.216 414.73 210.759 422.28 201.235 421C96.5213 406.967 13.6842 323.81 0.131479 218.936C-1.09574 209.412 6.42763 201.008 16.0319 201.008H101.724C109.327 201.035 115.783 206.397 117.384 213.84Z" fill="url(#paint0_linear)"/>
<defs>
<linearGradient id="paint0_linear" x1="236.536" y1="0.31063" x2="98.2258" y2="524.477" gradientUnits="userSpaceOnUse">
<stop stop-color="#500AE4"/>
<stop offset="1" stop-color="#0AD7E4"/>
</linearGradient>
</defs>
</svg>
